<svg width="201" height="140" viewBox="0 0 201 140" fill="none" xmlns="http://www.w3.org/2000/svg">
<path d="M24.4448 19.8056C23.9124 18.1879 23.3174 16.4085 22.6596 14.4673C21.5948 14.8879 20.937 15.1144 20.2793 15.4055C17.1474 16.7967 14.078 18.5115 10.8208 19.5145C8.62838 20.1939 6.06016 20.2909 3.77382 19.9351C1.01769 19.5468 -0.423007 17.1526 0.109428 14.532C0.297346 13.6261 0.986365 12.5584 1.73804 12.0731C5.99752 9.42011 10.5702 7.67302 15.6127 7.77008C17.2413 7.80243 18.9639 7.99654 20.4986 8.54656C21.9393 9.06421 22.7849 8.61126 23.8498 7.73771C26.2927 5.73179 28.7983 3.85528 31.3352 1.97876C31.9929 1.49346 32.8072 1.04052 33.5902 0.975808C37.3173 0.555211 41.0443 0.134613 44.7714 0.00519824C47.3396 -0.0918628 48.2792 1.16993 48.3418 3.82293C48.4358 7.9642 46.2434 11.426 42.4537 12.5584C38.4761 13.7555 34.4358 14.7261 30.3956 15.5997C28.9236 15.9232 27.3263 15.6644 25.3531 15.6644C25.9169 17.5085 26.3867 19.1586 26.7625 20.4204C31.7424 20.6792 36.3464 20.5498 40.8251 21.2292C54.2613 23.2998 60.901 36.0148 60.7757 47.0798C60.7757 47.8239 60.7131 48.6328 60.4312 49.3122C58.3015 54.327 55.514 58.7271 50.315 60.9919C46.2121 62.7713 41.9839 63.7096 37.5991 63.936C34.2792 64.0978 30.928 64.2919 27.6082 64.1302C25.3531 64.0331 23.0668 63.5802 20.8744 62.9331C18.2122 62.1566 16.2704 60.2801 14.5478 57.9506C10.8521 52.9358 9.81855 47.1768 10.4449 41.2238C10.9774 36.2737 13.1071 31.7441 16.4896 28.0558C19.0579 25.3058 21.6574 22.6851 24.4448 19.8056ZM33.9034 61.6713C34.1227 61.6713 34.6238 61.736 35.1562 61.736C39.7915 61.736 44.2703 61.0242 48.5924 59.2771C54.3552 56.98 58.8026 50.2181 58.2702 44.1356C57.8317 38.959 55.9212 34.3324 52.57 30.4177C45.8989 22.5881 37.2233 21.7469 27.9527 23.1057C24.8207 23.5587 22.9728 25.8881 20.6865 27.7646C12.9192 34.2354 10.2257 45.6239 15.9572 55.6535C17.4606 58.2742 19.5276 60.0213 22.4091 60.8624C26.1361 61.9625 29.8318 62.1566 33.9034 61.6713ZM26.6059 10.4554C26.7938 11.0054 27.107 11.8466 27.3576 12.6231C30.6149 12.8496 39.0712 11.2643 41.5454 9.93776C43.2993 9.03186 44.5521 7.57595 45.0533 5.60238C45.2725 4.69648 45.0846 3.69351 45.0846 2.46407C37.8184 3.04644 31.0533 3.43468 26.6059 10.4554ZM19.7156 12.1055C19.1831 11.5231 19.0579 11.2319 18.9013 11.2319C13.7648 10.4554 8.78498 10.779 4.24362 13.7231C3.27271 14.3702 2.01993 15.1144 2.70896 16.4409C3.0848 17.1526 4.40023 17.3468 5.27718 17.7674C5.4651 17.8321 5.68434 17.7997 5.90358 17.7997C11.134 17.6703 15.2369 14.8232 19.7156 12.1055Z" fill="black"/>
<path d="M49.2213 52.8711C48.9394 55.427 47.2168 56.0417 45.8388 56.3653C42.5189 57.1741 39.105 57.8536 35.7225 57.983C33.8746 58.0477 31.9015 57.0447 30.0849 56.3329C28.7069 55.7829 28.7382 55.1682 29.9283 53.4211C30.1476 53.4211 30.3981 53.324 30.5234 53.4211C34.3131 56.1388 38.4473 55.5241 42.5502 54.6505C44.6799 54.1976 46.747 53.5182 49.2213 52.8711Z" fill="black"/>
<path d="M26.7624 47.4354C27.5767 48.8913 27.8899 50.412 26.5118 51.2532C25.7288 51.7061 24.2568 51.512 23.4112 51.059C22.91 50.7679 22.5655 49.1825 22.8474 48.5031C23.5678 46.8207 25.1337 46.9825 26.7624 47.4354Z" fill="black"/>
<path d="M49.6562 47.5974C50.4706 45.9474 50.9717 44.912 51.5354 43.812C52.9135 44.3297 54.135 44.7826 53.7591 46.2062C53.3207 47.9856 51.8173 47.5974 49.6562 47.5974Z" fill="black"/>
<path d="M108.355 68.831C104.131 67.2484 99.7204 65.8576 95.5422 63.9394C92.5246 62.5486 91.5497 59.0957 91.2247 56.1223C90.8533 52.8133 91.9675 49.5042 94.1494 46.8186C95.96 44.6126 98.4669 43.6055 100.231 44.4687C102.413 45.5718 103.481 47.6819 103.017 50.0318C102.32 53.7245 101.206 57.3692 100.092 61.6854C103.388 63.1241 107.241 64.8505 111.234 66.625C114.112 63.1241 116.712 59.7671 119.497 56.6499C124.65 50.895 130.5 45.8595 137.231 42.2627C146.563 37.2752 158.308 39.3373 165.875 48.9767C171.864 56.554 174.65 65.3301 177.11 74.442C177.435 75.6889 177.76 76.8878 178.085 78.1347C178.132 78.2786 178.271 78.3745 178.41 78.5663C181.103 78.5663 183.842 78.5663 186.627 78.5663C188.159 78.5663 189.738 78.3745 191.27 78.5663C196.516 79.1898 198.79 81.5876 199.487 87.0547C199.673 88.6373 200.044 90.2199 199.998 91.8025C199.858 94.7279 197.955 96.9339 195.634 97.2217C193.405 97.5094 191.641 96.2146 190.945 92.9535C190.434 90.5076 190.527 87.918 190.527 85.4242C190.527 84.3691 190.805 83.3141 190.991 81.9713C186.767 81.9713 182.82 81.9713 178.456 81.9713C178.456 87.9179 178.456 93.5289 178.456 99.8113C178.549 99.9073 179.246 100.627 180.035 100.866C183.424 101.874 185.652 104.08 187.092 107.293C187.277 107.724 187.416 108.252 187.741 108.54C189.366 109.978 191.548 111.273 190.898 113.863C189.97 117.555 188.995 121.248 187.37 124.653C186.117 127.243 182.588 127.818 180.453 126.523C178.178 125.133 177.528 123.071 178.364 119.857C179.339 116.069 181.938 113.623 185.049 111.849C184.352 107.437 180.406 103.648 176.739 103.744C175.95 103.792 175.021 104.367 174.371 104.943C172.143 106.909 170.193 109.259 167.825 110.985C165.597 112.568 162.904 113.479 160.351 114.726C161.651 119.042 162.672 123.406 164.343 127.435C166.015 131.463 161.512 138.896 157.008 139.472C154.548 139.808 151.391 137.889 150.555 135.683C149.766 133.573 150.973 130.888 153.759 129.497C155.662 128.538 157.798 128.058 160.119 127.291C161.326 122.735 158.076 119.378 156.683 115.685C151.159 115.014 145.82 114.39 140.295 113.719C138.717 115.397 138.81 117.651 138.671 119.857C138.439 123.214 138.299 126.571 137.881 129.88C137.603 132.278 136.628 133.765 133.75 133.957C130.825 134.149 127.993 135.108 125.207 133.429C124.279 132.854 123.304 132.23 122.701 131.367C121.169 129.161 122.283 126.284 124.883 125.996C126.693 125.804 128.55 126.188 130.361 126.571C131.707 126.859 132.914 127.579 134.678 128.298C135.885 123.119 134.771 118.035 135.282 112.76C129.061 110.889 122.979 109.067 116.48 107.149C114.762 111.081 113.323 114.534 111.791 117.939C111.28 119.09 110.816 120.289 110.119 121.344C109.609 122.111 108.866 123.262 108.216 123.262C104.92 123.262 101.531 123.31 98.3276 122.687C95.7743 122.159 94.4744 119.666 93.4995 117.268C92.7102 115.302 92.8495 113.575 94.1494 111.897C95.5886 110.074 97.4456 110.218 99.2097 110.794C101.809 111.609 103.899 113.191 105.291 115.685C105.895 116.74 106.406 117.891 106.963 119.042C109.841 115.733 110.769 113.479 112.905 104.655C107.705 101.202 105.013 95.8309 103.574 88.9251C99.8597 91.0352 96.4706 92.8096 93.2673 94.9197C86.7679 99.1399 81.1505 96.7421 79.5721 88.9251C79.3864 88.0139 79.2935 87.0068 79.34 86.0956C79.4792 81.9233 80.872 79.7652 83.4718 79.7173C86.6286 79.6214 90.4819 83.3141 90.5283 86.719C90.5748 88.4455 90.2497 90.1719 90.0176 92.4259C91.2711 91.9943 92.246 91.8025 93.0817 91.3229C95.0779 90.124 96.9349 88.6373 98.9312 87.4863C102.599 85.4242 104.409 82.0672 105.523 78.0867C106.313 75.1613 107.241 72.3319 108.355 68.831ZM146.795 44.133C142.663 43.9892 137.789 45.5718 133.796 49.0726C128.643 53.5806 123.397 58.0886 118.847 63.22C114.205 68.4473 110.073 74.0583 108.495 81.5396C106.638 90.3638 112.626 102.017 120.565 102.641C121.169 102.689 121.818 102.929 122.283 103.264C129.339 108.635 137.742 109.211 145.959 110.554C150.927 111.369 155.755 110.889 160.583 109.691C169.311 107.58 175.16 99.092 174.371 89.8842C174.185 87.6782 173.953 85.4721 173.861 83.2181C173.257 71.2768 169.775 60.4864 162.301 51.2307C158.54 46.6268 154.037 43.7014 146.795 44.133ZM99.4418 47.8737C95.5886 49.8399 93.7781 53.3888 94.4744 56.554C94.7994 57.9447 96.0064 58.6161 96.7957 57.657C98.0491 56.1703 99.0704 54.252 99.674 52.3817C100.092 51.1348 99.5811 49.5522 99.4418 47.8737ZM86.0251 92.8575C88.1142 86.8149 87.7428 85.2803 83.8896 84.0814C82.1719 88.3016 82.5433 89.8362 86.0251 92.8575ZM160.212 130.216C157.844 129.545 156.126 130.744 154.734 132.134C154.176 132.662 154.037 134.724 154.362 134.916C155.244 135.444 156.823 135.875 157.519 135.444C159.19 134.341 160.351 132.614 160.212 130.216ZM181.846 123.214C185.931 121.92 186.906 119.714 185.467 115.11C183.563 117.508 180.917 119.138 181.846 123.214ZM97.167 114.63C97.7241 119.378 98.3277 119.905 102.599 119.762C101.531 115.589 101.113 115.158 97.167 114.63ZM195.077 84.9926C194.612 84.9926 194.195 84.9926 193.73 84.9926C193.359 87.6782 192.802 90.3638 195.634 92.6178C195.448 90.076 195.262 87.5343 195.077 84.9926Z" fill="black"/>
<path d="M134.028 73.5303C134.26 74.7292 134.446 75.2088 134.446 75.6404C134.168 81.2034 136.071 83.9849 141.085 85.2318C145.959 86.4787 149.441 84.7522 151.809 80.0524C152.598 78.4699 152.691 76.2159 155.105 75.9761C156.962 81.4912 153.48 88.4449 148.373 89.452C142.245 90.651 136.721 89.1643 132.125 84.6563C129.2 81.8269 128.968 77.8944 131.428 74.8731C131.893 74.3455 132.868 74.1537 134.028 73.5303Z" fill="black"/>
<path d="M158.911 62.0214C160.536 61.9734 162.393 63.8917 162.439 65.7141C162.486 67.5365 161.093 69.1191 159.375 69.1191C157.658 69.1191 155.801 67.2487 155.801 65.5223C155.708 63.8438 157.333 62.0693 158.911 62.0214Z" fill="black"/>
<path d="M138.995 60.6781C139.088 62.2128 137.556 64.0831 135.885 64.179C134.26 64.2749 132.774 63.8433 132.542 61.8291C132.31 59.9588 133.889 57.7048 135.421 57.6568C137.046 57.6089 138.902 59.1914 138.995 60.6781Z" fill="black"/>
</svg>
