<svg width="90" height="37" viewBox="0 0 90 37" fill="none" xmlns="http://www.w3.org/2000/svg">
<path d="M89.5206 0.155273H0.496094V36.3108H89.5206V0.155273Z" fill="#0051BA"/>
<path d="M2.23047 18.227C2.23047 26.963 20.1553 34.2196 45.0076 34.2196C69.8472 34.2196 87.772 26.9757 87.772 18.227C87.772 9.49099 69.8472 2.23438 45.0076 2.23438C20.1553 2.23437 2.23047 9.49099 2.23047 18.227Z" fill="#F9D616"/>
<path d="M42.4823 23.3539C42.7375 23.7493 43.0437 24.1064 43.4264 24.489H33.7942C33.7942 24.1064 33.437 23.3284 33.016 22.7163C32.6078 22.1041 30.4006 18.75 30.4006 18.75V23.3539C30.4006 23.7365 30.4006 24.1064 30.592 24.489H22.5673C22.7587 24.1064 22.7587 23.7365 22.7587 23.3539V12.4116C22.7587 12.029 22.7587 11.6592 22.5673 11.2766H30.592C30.4006 11.6592 30.4006 12.029 30.4006 12.4116V17.1813C30.4006 17.1813 32.965 13.8527 33.5518 13.062C33.9984 12.4626 34.547 11.6464 34.547 11.2638H42.9161C42.342 11.6464 41.7041 12.3351 41.181 12.9728C40.7218 13.5339 38.1192 16.7095 38.1192 16.7095C38.1192 16.7095 41.972 22.6015 42.4823 23.3539ZM44.9956 12.4116V23.3539C44.9956 23.7365 44.9956 24.1064 44.8043 24.489H60.2923V20.8288C59.9096 21.0201 59.5396 21.0201 59.1569 21.0201H52.6376V19.2856H58.9017V16.5054H52.6376V14.771H59.1569C59.5396 14.771 59.9096 14.771 60.2923 14.9495V11.2893H44.817C44.9957 11.6464 44.9956 12.029 44.9956 12.4116ZM81.7639 23.3412C81.9042 23.7238 82.0573 24.1064 82.389 24.4762H73.9943C74.0326 24.0936 73.8922 23.7238 73.7391 23.3412C73.7391 23.3412 73.6116 23.0351 73.433 22.5887C73.4202 22.5632 73.3564 22.3847 73.3564 22.3847H68.5212L68.4446 22.5887C68.4446 22.5887 68.3043 22.9586 68.1767 23.3412C68.0364 23.7238 67.9088 24.0936 67.9598 24.4762H61.3385C61.6574 24.0936 61.7978 23.7238 61.9381 23.3412C62.155 22.7418 65.5996 13.2406 65.9058 12.3989C66.0462 12.0163 66.1865 11.6464 66.1227 11.2638H77.3113C77.2093 11.6464 77.4134 12.0163 77.5538 12.3989C77.8982 13.2533 81.4832 22.6142 81.7639 23.3412ZM72.2975 19.6172C71.6979 18.0231 71.1876 16.6967 71.1365 16.5564C70.9962 16.1738 70.8814 15.6892 70.8814 15.6892C70.8814 15.6892 70.7921 16.1738 70.6517 16.5564C70.6135 16.684 70.1159 18.0231 69.5418 19.6172H72.2975ZM18.7655 11.2766H10.0391C10.2304 11.6592 10.2304 12.029 10.2304 12.4116V23.3539C10.2304 23.7365 10.2304 24.1064 10.0391 24.489H18.7655C18.5741 24.1064 18.5741 23.7365 18.5741 23.3539V12.4116C18.5741 12.029 18.5741 11.6464 18.7655 11.2766ZM79.0847 12.3223C79.0847 11.3148 79.8119 10.5879 80.8198 10.5879C81.7766 10.5879 82.5548 11.3148 82.5548 12.3223C82.5548 13.3298 81.8276 14.0568 80.8198 14.0568C79.8119 14.0568 79.0847 13.3298 79.0847 12.3223ZM79.4292 12.3223C79.4292 13.0875 80.016 13.7124 80.8198 13.7124C81.5852 13.7124 82.2104 13.1385 82.2104 12.3223C82.2104 11.5571 81.6363 10.9322 80.8198 10.9322C80.0033 10.9322 79.4292 11.5061 79.4292 12.3223ZM80.4753 13.3554H80.1691V11.2638H80.9473C81.3046 11.2638 81.598 11.5826 81.598 11.9397C81.598 12.1948 81.4449 12.4371 81.228 12.5519L81.6745 13.3554H81.3301L80.9218 12.6157H80.4753V13.3554ZM80.4753 12.3223H80.8963C81.1132 12.3223 81.2918 12.1693 81.2918 11.9525C81.2918 11.7357 81.1132 11.5826 80.8963 11.5826H80.4753V12.3223Z" fill="#0051BA"/>
</svg>
